<?xml version="1.0" standalone="no"?><!DOCTYPE svg PUBLIC "-//W3C//DTD SVG 1.1//EN" "http://www.w3.org/Graphics/SVG/1.1/DTD/svg11.dtd"><svg height="800" node-id="1" sillyvg="true" template-height="800" template-width="800" version="1.1" viewBox="0 0 800 800" width="800" xmlns="http://www.w3.org/2000/svg" xmlns:xlink="http://www.w3.org/1999/xlink"><defs node-id="124"><linearGradient gradientUnits="objectBoundingBox" id="SVGID_1_" node-id="20" spreadMethod="pad" x1="400.7835" x2="400.7835" y1="155.4897" y2="710.9813"><stop offset="0.00000009590021" stop-color="#f4f2fb"></stop><stop offset="1" stop-color="#e1eef5"></stop></linearGradient><linearGradient gradientUnits="objectBoundingBox" id="SVGID_2_" node-id="25" spreadMethod="pad" x1="115.8653" x2="115.8653" y1="535.876" y2="398.7014"><stop offset="0.2267" stop-color="#b7ace0"></stop><stop offset="0.7893" stop-color="#e8e7fa"></stop></linearGradient><linearGradient gradientUnits="objectBoundingBox" id="SVGID_3_" node-id="30" spreadMethod="pad" x1="115.8672" x2="115.8672" y1="413.9331" y2="565.0664"><stop offset="0" stop-color="#ecf1fb"></stop><stop offset="0.818" stop-color="#afb0e7"></stop></linearGradient><linearGradient gradientUnits="objectBoundingBox" id="SVGID_4_" node-id="35" spreadMethod="pad" x1="616.9941" x2="616.9941" y1="444.354" y2="356.0295"><stop offset="0.2267" stop-color="#ccd4f4"></stop><stop offset="0.7893" stop-color="#ecf1fb"></stop></linearGradient><linearGradient gradientUnits="objectBoundingBox" id="SVGID_5_" node-id="40" spreadMethod="pad" x1="616.9954" x2="616.9954" y1="365.837" y2="463.1493"><stop offset="0" stop-color="#ecf1fb"></stop><stop offset="1" stop-color="#a6a8e2"></stop></linearGradient><linearGradient gradientUnits="objectBoundingBox" id="SVGID_6_" node-id="44" spreadMethod="pad" x1="462.9123" x2="428.158" y1="81.7474" y2="141.9436"><stop offset="0" stop-color="#ffdb80"></stop><stop offset="1" stop-color="#ffbb24"></stop></linearGradient><linearGradient gradientUnits="objectBoundingBox" id="SVGID_7_" node-id="48" spreadMethod="pad" x1="420.5751" x2="420.5751" y1="112.2136" y2="169.6676"><stop offset="0" stop-color="#f9fafe"></stop><stop offset="1" stop-color="#e5edf7"></stop></linearGradient><linearGradient gradientUnits="objectBoundingBox" id="SVGID_8_" node-id="53" spreadMethod="pad" x1="687.5965" x2="687.5965" y1="533.5941" y2="505.7659"><stop offset="0.2267" stop-color="#afb0e7"></stop><stop offset="1" stop-color="#ecf1fb"></stop></linearGradient><linearGradient gradientUnits="objectBoundingBox" id="SVGID_9_" node-id="57" spreadMethod="pad" x1="687.6456" x2="687.6456" y1="509.2796" y2="554.0755"><stop offset="0.00000009590021" stop-color="#dde1f6"></stop><stop offset="0.818" stop-color="#a6a8e2"></stop></linearGradient><linearGradient gradientUnits="objectBoundingBox" id="SVGID_10_" node-id="61" spreadMethod="pad" x1="449.5276" x2="575.8069" y1="602.095" y2="383.3728"><stop offset="0.3396" stop-color="#b0b9e1"></stop><stop offset="0.8657" stop-color="#eaf0f8"></stop></linearGradient><linearGradient gradientUnits="objectBoundingBox" id="SVGID_11_" node-id="66" spreadMethod="pad" x1="305.9053" x2="519.8668" y1="259.9072" y2="630.4993"><stop offset="0" stop-color="#c8cbf2"></stop><stop offset="1" stop-color="#afb0e7"></stop></linearGradient><linearGradient gradientUnits="objectBoundingBox" id="SVGID_12_" node-id="70" spreadMethod="pad" x1="302.7" x2="509.912" y1="271.3264" y2="630.2281"><stop offset="0.1157" stop-color="#dee4ff"></stop><stop offset="0.8472" stop-color="#bacbee"></stop></linearGradient><linearGradient gradientUnits="objectBoundingBox" id="SVGID_13_" node-id="74" spreadMethod="pad" x1="324.6936" x2="382.1354" y1="347.5418" y2="447.034"><stop offset="0" stop-color="#c8cbf2"></stop><stop offset="1" stop-color="#afb0e7"></stop></linearGradient><linearGradient gradientUnits="objectBoundingBox" id="SVGID_14_" node-id="79" spreadMethod="pad" x1="364.6062" x2="448.6564" y1="384.3011" y2="529.8804"><stop offset="0" stop-color="#c8cbf2"></stop><stop offset="1" stop-color="#afb0e7"></stop></linearGradient><linearGradient gradientUnits="objectBoundingBox" id="SVGID_15_" node-id="84" spreadMethod="pad" x1="364.6062" x2="448.6564" y1="445.5055" y2="591.0848"><stop offset="0" stop-color="#c8cbf2"></stop><stop offset="1" stop-color="#afb0e7"></stop></linearGradient><linearGradient gradientUnits="objectBoundingBox" id="SVGID_16_" node-id="89" spreadMethod="pad" x1="518.9282" x2="559.5704" y1="349.7822" y2="420.1767"><stop offset="0" stop-color="#c8cbf2"></stop><stop offset="1" stop-color="#afb0e7"></stop></linearGradient><linearGradient gradientUnits="objectBoundingBox" id="SVGID_17_" node-id="98" spreadMethod="pad" x1="321.8481" x2="321.8481" y1="310.6903" y2="267.429"><stop offset="0" stop-color="#445677"></stop><stop offset="1" stop-color="#293861"></stop></linearGradient><linearGradient gradientUnits="objectBoundingBox" id="SVGID_18_" node-id="102" spreadMethod="pad" x1="322.1475" x2="322.1475" y1="280.4251" y2="195.0997"><stop offset="0" stop-color="#c3d5fd"></stop><stop offset="1" stop-color="#1a90fc"></stop></linearGradient><linearGradient gradientUnits="objectBoundingBox" id="SVGID_19_" node-id="106" spreadMethod="pad" x1="320.9777" x2="320.9777" y1="225.036" y2="154.3617"><stop offset="0" stop-color="#4f5c7c"></stop><stop offset="1" stop-color="#274168"></stop></linearGradient><linearGradient gradientUnits="objectBoundingBox" id="SVGID_20_" node-id="110" spreadMethod="pad" x1="492.0688" x2="532.7136" y1="198.2625" y2="268.6614"><stop offset="0.1157" stop-color="#dee4ff"></stop><stop offset="0.8472" stop-color="#bacbee"></stop></linearGradient><linearGradient gradientUnits="objectBoundingBox" id="SVGID_21_" node-id="114" spreadMethod="pad" x1="162.1077" x2="177.1286" y1="541.1406" y2="567.1575"><stop offset="0.1157" stop-color="#dee4ff"></stop><stop offset="0.8472" stop-color="#bacbee"></stop></linearGradient><linearGradient gradientUnits="objectBoundingBox" id="SVGID_22_" node-id="118" spreadMethod="pad" x1="637.3961" x2="652.417" y1="579.1283" y2="605.1453"><stop offset="0.1157" stop-color="#dee4ff"></stop><stop offset="0.8472" stop-color="#bacbee"></stop></linearGradient></defs><g node-id="372"><g node-id="374"><g node-id="375"><path d="M 484.00 196.80 L 479.10 200.40 L 473.70 203.70 L 467.90 206.80 L 461.50 209.70 L 455.00 212.10 L 441.00 216.20 L 433.40 217.70 L 423.30 219.30 L 412.70 220.20 L 401.70 220.60 L 390.70 220.40 L 379.50 219.50 L 368.20 217.90 L 359.70 216.40 L 342.90 212.10 L 334.60 209.40 L 326.40 206.30 L 318.40 202.80 L 310.60 198.90 L 296.30 191.00 L 289.30 187.60 L 282.00 184.50 L 266.40 179.30 L 250.10 175.60 L 233.10 173.20 L 216.00 172.30 L 207.40 172.40 L 198.80 172.80 L 190.40 173.70 L 182.10 175.00 L 173.90 176.60 L 165.80 178.70 L 158.00 181.20 L 150.60 184.00 L 143.40 187.30 L 136.40 191.10 L 129.90 195.20 L 123.80 199.80 L 118.20 204.80 L 114.00 209.10 L 110.10 213.80 L 106.60 218.70 L 103.50 223.90 L 100.70 229.50 L 98.10 235.80 L 96.00 242.00 L 94.50 248.20 L 93.50 254.20 L 92.70 266.60 L 93.30 278.70 L 94.40 286.80 L 95.90 294.70 L 101.20 314.40 L 114.30 355.70 L 117.50 369.70 L 118.50 376.70 L 118.80 383.40 L 118.60 389.80 L 118.00 394.60 L 117.00 399.30 L 115.50 403.90 L 113.40 408.50 L 110.20 414.30 L 102.00 427.30 L 79.80 458.70 L 72.20 470.10 L 62.70 485.90 L 58.40 494.00 L 54.50 502.40 L 51.10 510.90 L 48.30 519.50 L 46.60 526.10 L 45.40 532.80 L 44.60 539.60 L 44.30 546.60 L 44.50 553.40 L 45.20 560.50 L 46.60 567.60 L 48.60 575.00 L 53.00 586.50 L 55.90 592.40 L 63.50 604.90 L 69.70 613.50 L 76.00 621.20 L 82.10 627.90 L 88.20 633.80 L 94.70 639.50 L 101.20 644.40 L 107.60 648.70 L 114.00 652.30 L 120.60 655.50 L 127.20 658.30 L 133.70 660.50 L 140.10 662.20 L 148.80 664.00 L 157.40 665.20 L 165.80 665.70 L 174.20 665.80 L 190.30 664.70 L 202.00 663.20 L 232.70 657.30 L 239.00 656.40 L 245.40 656.00 L 251.90 656.00 L 258.60 656.50 L 267.40 657.90 L 276.40 659.80 L 285.70 662.40 L 304.30 668.70 L 358.60 690.80 L 374.00 696.70 L 384.40 700.20 L 394.90 703.40 L 405.60 706.10 L 413.60 707.90 L 429.90 710.20 L 438.10 710.80 L 446.40 711.00 L 454.70 710.70 L 463.10 709.80 L 471.70 708.40 L 480.00 706.60 L 488.50 704.00 L 497.20 700.70 L 506.10 696.80 L 512.80 693.30 L 519.70 689.20 L 526.70 684.60 L 533.90 679.30 L 546.60 669.40 L 552.00 665.90 L 557.30 663.00 L 562.80 660.60 L 574.10 656.90 L 585.60 654.80 L 593.50 654.10 L 601.40 653.80 L 621.40 654.60 L 657.20 657.60 L 665.00 657.90 L 680.00 657.50 L 687.40 656.70 L 694.60 655.30 L 701.50 653.30 L 706.50 651.30 L 711.40 648.90 L 716.20 645.90 L 720.90 642.50 L 725.20 638.60 L 729.50 634.10 L 733.70 628.90 L 737.80 622.80 L 741.30 616.70 L 744.80 609.60 L 748.20 601.40 L 751.50 592.10 L 753.70 584.30 L 755.40 577.00 L 756.50 570.00 L 757.10 563.40 L 757.30 556.60 L 757.00 550.10 L 756.40 543.90 L 755.40 537.90 L 753.60 530.00 L 751.20 522.40 L 748.40 515.20 L 745.10 508.10 L 737.80 494.60 L 731.70 484.90 L 713.10 457.60 L 707.50 448.70 L 702.70 440.00 L 700.00 434.00 L 697.80 428.10 L 696.10 422.20 L 695.30 417.70 L 694.80 413.20 L 694.80 408.50 L 695.10 403.80 L 695.90 399.20 L 697.20 394.40 L 699.00 389.30 L 706.00 374.80 L 710.10 365.50 L 713.70 356.20 L 716.80 346.80 L 719.50 337.20 L 721.70 327.70 L 723.50 318.20 L 724.80 308.80 L 725.70 299.30 L 726.20 290.00 L 726.30 280.90 L 725.90 271.90 L 725.20 262.90 L 724.00 254.10 L 722.40 245.70 L 720.50 237.50 L 718.10 229.40 L 715.30 221.70 L 712.20 214.30 L 708.70 207.40 L 704.80 200.60 L 700.50 194.30 L 696.00 188.40 L 691.00 183.00 L 686.80 179.10 L 682.00 175.40 L 676.80 171.90 L 671.00 168.80 L 665.10 166.00 L 658.80 163.60 L 652.00 161.40 L 644.80 159.60 L 630.20 156.90 L 614.30 155.60 L 603.60 155.50 L 592.60 156.00 L 581.30 157.20 L 570.00 158.90 L 558.70 161.30 L 547.30 164.40 L 530.70 170.20 L 514.40 177.60 L 506.50 181.80 L 498.80 186.40 L 491.30 191.40 L 484.00 196.80 Z" fill="url(#SVGID_1_)" fill-rule="nonzero" group-id="14,16,17" node-id="277" stroke="none" target-height="555.5" target-width="713" target-x="44.3" target-y="155.5"></path><g node-id="378"><path d="M 116.70 398.90 L 116.40 398.70 L 116.10 399.00 L 113.20 405.90 L 104.70 428.80 L 98.00 450.10 L 94.80 461.90 L 92.00 473.90 L 88.40 494.20 L 86.90 511.80 L 87.20 516.70 L 88.00 519.70 L 90.50 525.10 L 94.10 529.30 L 96.50 531.00 L 99.40 532.60 L 103.00 534.10 L 106.80 535.00 L 111.50 535.60 L 117.20 535.90 L 121.50 535.60 L 128.30 534.20 L 131.00 533.10 L 134.40 531.20 L 137.10 529.00 L 139.30 526.60 L 141.00 523.80 L 143.30 518.10 L 144.30 513.60 L 144.70 509.60 L 144.60 498.30 L 143.10 486.80 L 141.40 477.70 L 139.10 467.90 L 133.60 448.10 L 127.60 429.50 L 116.70 398.90 Z" fill="url(#SVGID_2_)" fill-rule="nonzero" group-id="14,16,17,20" node-id="281" stroke="none" target-height="137.20001" target-width="57.799995" target-x="86.9" target-y="398.7"></path><g node-id="383"><path d="M 115.90 565.10 L 115.20 564.80 L 114.90 564.10 L 114.90 414.90 L 115.20 414.20 L 115.90 413.90 L 116.60 414.20 L 116.90 414.90 L 116.90 564.10 L 116.60 564.80 L 115.90 565.10 Z" fill="url(#SVGID_3_)" fill-rule="nonzero" group-id="14,16,17,20,25" node-id="285" stroke="none" target-height="151.19998" target-width="2" target-x="114.9" target-y="413.9"></path></g></g><g node-id="379"><path d="M 617.50 356.20 L 617.20 356.20 L 615.30 360.70 L 611.80 369.70 L 607.60 382.20 L 603.50 396.70 L 601.70 404.50 L 599.00 420.10 L 598.40 427.60 L 598.50 431.10 L 598.90 433.60 L 599.80 436.00 L 601.50 438.60 L 602.90 440.10 L 604.80 441.40 L 607.40 442.70 L 610.00 443.60 L 613.50 444.10 L 617.80 444.40 L 621.50 444.10 L 624.40 443.50 L 626.70 442.60 L 630.70 439.90 L 632.10 438.40 L 633.70 435.70 L 634.70 432.90 L 635.60 427.50 L 635.70 423.30 L 635.30 417.70 L 632.70 403.80 L 630.80 396.30 L 626.50 381.70 L 617.50 356.20 Z" fill="url(#SVGID_4_)" fill-rule="nonzero" group-id="14,16,17,21" node-id="291" stroke="none" target-height="88.19998" target-width="37.299988" target-x="598.4" target-y="356.2"></path><g node-id="384"><path d="M 617.00 463.20 L 616.40 462.50 L 616.50 366.00 L 617.00 365.90 L 617.60 366.50 L 617.60 462.50 L 617.00 463.20 Z" fill="url(#SVGID_5_)" fill-rule="nonzero" group-id="14,16,17,21,26" node-id="295" stroke="none" target-height="97.30002" target-width="1.1999512" target-x="616.4" target-y="365.9"></path></g></g><path d="M 480.30 111.80 L 480.00 116.60 L 479.00 121.10 L 477.60 125.40 L 475.50 129.40 L 473.10 133.10 L 470.10 136.40 L 466.80 139.40 L 463.10 141.80 L 459.10 143.90 L 454.80 145.40 L 450.30 146.30 L 445.50 146.60 L 440.80 146.30 L 436.30 145.40 L 432.00 143.90 L 428.00 141.80 L 424.30 139.40 L 421.00 136.40 L 418.00 133.10 L 415.50 129.40 L 413.50 125.40 L 412.00 121.10 L 411.10 116.60 L 410.80 111.80 L 411.10 107.10 L 412.00 102.60 L 413.50 98.30 L 415.50 94.30 L 418.00 90.60 L 421.00 87.30 L 424.30 84.30 L 428.00 81.90 L 432.00 79.80 L 436.30 78.30 L 440.80 77.40 L 445.50 77.10 L 450.30 77.40 L 454.80 78.30 L 459.10 79.80 L 463.10 81.90 L 466.80 84.30 L 470.10 87.30 L 473.10 90.60 L 475.50 94.30 L 477.60 98.30 L 479.00 102.60 L 480.00 107.10 L 480.30 111.80 Z" fill="url(#SVGID_6_)" fill-rule="nonzero" group-id="14,16,17" node-id="299" stroke="none" target-height="69.50001" target-width="69.5" target-x="410.8" target-y="77.1"></path><path d="M 465.30 130.80 L 430.70 130.80 L 429.70 127.30 L 428.20 124.20 L 426.30 121.30 L 424.00 118.70 L 421.30 116.50 L 418.30 114.70 L 415.00 113.30 L 411.50 112.50 L 407.80 112.20 L 404.10 112.50 L 400.60 113.30 L 397.30 114.70 L 394.30 116.50 L 391.70 118.70 L 389.30 121.30 L 387.40 124.20 L 385.90 127.30 L 384.90 130.80 L 375.80 130.80 L 372.30 131.10 L 369.00 132.00 L 366.00 133.50 L 363.30 135.40 L 361.00 137.70 L 359.00 140.40 L 357.60 143.40 L 356.70 146.70 L 356.40 150.20 L 356.70 153.80 L 357.60 157.00 L 359.00 160.00 L 361.00 162.80 L 363.30 165.10 L 366.00 167.00 L 369.00 168.50 L 372.30 169.30 L 375.80 169.70 L 465.30 169.70 L 468.80 169.30 L 472.10 168.50 L 475.10 167.00 L 477.80 165.10 L 480.20 162.80 L 482.10 160.10 L 483.50 157.00 L 484.40 153.80 L 484.70 150.20 L 484.40 146.70 L 483.50 143.40 L 482.10 140.40 L 480.20 137.70 L 477.90 135.40 L 475.10 133.50 L 472.10 132.00 L 468.90 131.10 L 465.30 130.80 Z" fill="url(#SVGID_7_)" fill-rule="nonzero" group-id="14,16,17" node-id="301" stroke="none" target-height="57.5" target-width="128.30002" target-x="356.4" target-y="112.2"></path><g node-id="380"><path d="M 701.50 519.70 L 701.30 522.20 L 700.60 524.50 L 699.60 526.70 L 696.60 530.30 L 694.60 531.70 L 692.50 532.70 L 690.10 533.40 L 687.60 533.60 L 685.10 533.40 L 682.70 532.70 L 680.60 531.70 L 678.60 530.30 L 677.00 528.70 L 675.60 526.70 L 674.60 524.50 L 673.90 522.20 L 673.70 519.70 L 673.90 517.10 L 674.60 514.80 L 675.60 512.70 L 677.00 510.70 L 680.60 507.70 L 682.70 506.60 L 685.10 506.00 L 687.60 505.80 L 690.10 506.00 L 692.50 506.60 L 694.60 507.70 L 696.60 509.10 L 699.60 512.70 L 700.60 514.80 L 701.30 517.10 L 701.50 519.70 Z" fill="url(#SVGID_8_)" fill-rule="nonzero" group-id="14,16,17,22" node-id="305" stroke="none" target-height="27.799988" target-width="27.799988" target-x="673.7" target-y="505.8"></path><path d="M 687.70 554.10 L 687.20 553.70 L 687.30 509.40 L 688.00 509.40 L 688.10 509.70 L 688.10 553.70 L 687.70 554.10 Z" fill="url(#SVGID_9_)" fill-rule="nonzero" group-id="14,16,17,22" node-id="307" stroke="none" target-height="44.69998" target-width="0.8999634" target-x="687.2" target-y="509.4"></path></g></g><path d="M 397.50 442.40 L 678.00 442.40 L 618.90 558.60 L 374.10 558.60 Z" fill="url(#SVGID_10_)" fill-rule="nonzero" group-id="14,16" node-id="311" stroke="none" target-height="116.19998" target-width="303.9" target-x="374.1" target-y="442.4"></path><g node-id="376"><path d="M 573.70 592.00 L 446.90 592.20 L 443.40 593.70 L 441.90 595.00 L 418.20 620.10 L 415.20 621.50 L 412.80 621.90 L 410.40 621.60 L 407.30 620.30 L 381.50 594.80 L 380.00 593.60 L 376.70 592.20 L 252.10 592.00 L 247.10 591.70 L 242.40 591.00 L 237.80 589.90 L 233.50 588.30 L 229.30 586.20 L 225.30 583.80 L 221.70 581.10 L 218.30 578.00 L 215.20 574.60 L 212.50 571.00 L 210.10 567.00 L 208.10 562.80 L 206.40 558.50 L 205.30 553.90 L 204.60 549.20 L 204.30 544.30 L 204.30 346.20 L 204.60 341.20 L 205.30 336.50 L 206.40 331.90 L 208.10 327.60 L 210.10 323.40 L 212.50 319.40 L 215.20 315.80 L 218.30 312.40 L 221.70 309.30 L 225.30 306.60 L 229.30 304.20 L 233.50 302.10 L 237.80 300.50 L 242.40 299.40 L 247.10 298.70 L 252.10 298.40 L 573.70 298.40 L 578.70 298.70 L 583.40 299.40 L 587.90 300.50 L 592.30 302.10 L 596.50 304.20 L 600.40 306.60 L 604.10 309.30 L 607.50 312.40 L 610.60 315.80 L 613.30 319.40 L 615.70 323.40 L 617.70 327.60 L 619.30 331.90 L 620.50 336.50 L 621.20 341.20 L 621.50 346.20 L 621.50 544.30 L 621.20 549.20 L 620.50 553.90 L 619.30 558.50 L 617.70 562.80 L 615.70 567.00 L 613.30 571.00 L 610.60 574.60 L 607.50 578.00 L 604.10 581.10 L 600.40 583.80 L 596.50 586.20 L 592.30 588.30 L 587.90 589.90 L 583.40 591.00 L 578.70 591.70 L 573.70 592.00 Z" fill="url(#SVGID_11_)" fill-rule="nonzero" group-id="14,16,18" node-id="315" stroke="none" target-height="323.50003" target-width="417.2" target-x="204.3" target-y="298.4"></path><path d="M 562.10 593.00 L 439.20 593.10 L 435.80 594.60 L 434.40 595.90 L 411.50 620.10 L 408.60 621.50 L 406.20 621.90 L 403.90 621.60 L 400.90 620.30 L 375.90 595.60 L 374.50 594.50 L 371.20 593.10 L 250.60 593.00 L 245.70 592.70 L 241.20 592.00 L 236.80 590.90 L 232.50 589.30 L 228.50 587.30 L 224.70 585.00 L 221.10 582.40 L 217.80 579.40 L 214.80 576.10 L 212.20 572.60 L 209.90 568.80 L 207.90 564.70 L 206.40 560.50 L 205.30 556.10 L 204.60 551.50 L 204.30 546.70 L 204.30 354.90 L 204.60 350.00 L 205.30 345.50 L 206.40 341.10 L 207.90 336.80 L 209.90 332.80 L 212.20 329.00 L 214.90 325.40 L 217.80 322.10 L 221.10 319.10 L 224.70 316.50 L 228.50 314.20 L 232.50 312.20 L 236.80 310.70 L 241.20 309.60 L 245.70 308.90 L 250.60 308.60 L 562.10 308.60 L 566.90 308.90 L 571.40 309.60 L 575.80 310.70 L 580.10 312.20 L 584.10 314.20 L 587.90 316.50 L 591.50 319.20 L 594.80 322.10 L 597.80 325.40 L 600.40 329.00 L 602.70 332.80 L 604.70 336.80 L 606.20 341.10 L 607.40 345.50 L 608.10 350.00 L 608.30 354.90 L 608.30 546.70 L 608.10 551.50 L 607.40 556.10 L 606.20 560.50 L 604.70 564.70 L 602.70 568.80 L 600.40 572.60 L 597.80 576.10 L 594.80 579.40 L 591.50 582.40 L 587.90 585.00 L 584.10 587.30 L 580.10 589.30 L 575.80 590.90 L 571.40 592.00 L 566.90 592.70 L 562.10 593.00 Z" fill="url(#SVGID_12_)" fill-rule="nonzero" group-id="14,16,18" node-id="317" stroke="none" target-height="313.30002" target-width="404" target-x="204.3" target-y="308.6"></path><path d="M 446.40 408.60 L 258.30 408.40 L 255.30 407.00 L 252.90 404.60 L 251.20 401.30 L 250.70 397.40 L 251.20 393.40 L 252.90 390.10 L 255.30 387.70 L 256.70 386.80 L 259.90 386.20 L 448.10 386.30 L 451.30 387.70 L 454.00 390.20 L 455.90 393.60 L 456.60 397.50 L 455.90 401.40 L 454.00 404.70 L 451.30 407.10 L 449.70 407.90 L 446.40 408.60 Z" fill="url(#SVGID_13_)" fill-rule="nonzero" group-id="14,16,18" node-id="319" stroke="none" target-height="22.399994" target-width="205.90001" target-x="250.7" target-y="386.2"></path><path d="M 444.70 408.50 L 258.20 408.40 L 255.30 407.30 L 253.40 405.80 L 251.90 403.90 L 251.20 402.50 L 250.70 399.20 L 251.20 396.00 L 251.90 394.60 L 253.40 392.70 L 255.30 391.20 L 258.20 390.10 L 446.40 390.10 L 449.30 391.20 L 451.20 392.70 L 452.70 394.60 L 453.40 396.00 L 453.90 399.20 L 453.40 402.50 L 452.70 403.90 L 451.20 405.80 L 449.30 407.30 L 447.90 407.90 L 444.70 408.50 Z" fill="#ffffff" fill-rule="nonzero" group-id="14,16,18" node-id="321" stroke="none" target-height="18.399994" target-width="203.2" target-x="250.7" target-y="390.1"></path><path d="M 552.80 468.40 L 259.90 468.40 L 256.70 467.70 L 255.20 466.80 L 252.90 464.40 L 251.20 461.10 L 250.70 457.20 L 251.20 453.20 L 252.90 449.90 L 255.20 447.50 L 256.70 446.60 L 259.90 446.00 L 552.80 446.00 L 556.20 446.70 L 557.80 447.50 L 560.40 450.00 L 562.30 453.40 L 563.00 457.30 L 562.30 461.20 L 560.40 464.50 L 557.80 466.90 L 556.20 467.70 L 552.80 468.40 Z" fill="url(#SVGID_14_)" fill-rule="nonzero" group-id="14,16,18" node-id="323" stroke="none" target-height="22.399994" target-width="312.3" target-x="250.7" target-y="446"></path><path d="M 551.10 468.30 L 259.90 468.30 L 256.70 467.70 L 255.30 467.10 L 253.40 465.60 L 251.90 463.70 L 251.20 462.30 L 250.70 459.10 L 251.20 455.80 L 251.90 454.40 L 253.40 452.50 L 255.30 451.00 L 256.70 450.40 L 259.90 449.80 L 551.10 449.80 L 554.30 450.40 L 555.80 451.00 L 557.70 452.50 L 559.10 454.40 L 559.80 455.80 L 560.40 459.10 L 559.80 462.30 L 559.10 463.70 L 557.70 465.60 L 555.80 467.10 L 554.30 467.70 L 551.10 468.30 Z" fill="#ffffff" fill-rule="nonzero" group-id="14,16,18" node-id="325" stroke="none" target-height="18.5" target-width="309.7" target-x="250.7" target-y="449.8"></path><path d="M 552.80 529.60 L 259.90 529.60 L 256.70 528.90 L 255.20 528.00 L 252.90 525.60 L 251.20 522.30 L 250.70 518.40 L 251.20 514.40 L 252.90 511.10 L 255.20 508.70 L 256.70 507.90 L 259.90 507.20 L 552.80 507.20 L 556.20 507.90 L 557.80 508.70 L 560.40 511.20 L 562.30 514.60 L 563.00 518.50 L 562.30 522.40 L 560.40 525.70 L 557.80 528.10 L 556.20 528.90 L 552.80 529.60 Z" fill="url(#SVGID_15_)" fill-rule="nonzero" group-id="14,16,18" node-id="327" stroke="none" target-height="22.399963" target-width="312.3" target-x="250.7" target-y="507.2"></path><path d="M 551.10 529.50 L 259.90 529.50 L 256.70 529.00 L 255.30 528.30 L 253.40 526.80 L 251.90 524.90 L 251.20 523.50 L 250.70 520.30 L 251.20 517.00 L 251.90 515.60 L 253.40 513.70 L 255.30 512.20 L 256.70 511.60 L 259.90 511.00 L 551.10 511.00 L 554.30 511.60 L 555.80 512.20 L 557.70 513.70 L 559.10 515.60 L 559.80 517.00 L 560.40 520.30 L 559.80 523.50 L 557.70 526.80 L 555.80 528.30 L 554.30 529.00 L 551.10 529.50 Z" fill="#ffffff" fill-rule="nonzero" group-id="14,16,18" node-id="329" stroke="none" target-height="18.5" target-width="309.7" target-x="250.7" target-y="511"></path><path d="M 554.90 385.00 L 568.80 371.10 L 571.00 367.90 L 572.00 364.20 L 571.60 360.50 L 570.10 357.10 L 567.20 354.20 L 565.60 353.30 L 561.90 352.30 L 558.20 352.70 L 556.40 353.30 L 553.20 355.50 L 539.30 369.40 L 525.30 355.50 L 522.10 353.30 L 520.30 352.70 L 516.60 352.30 L 512.90 353.30 L 511.30 354.20 L 508.40 357.10 L 506.90 360.50 L 506.50 364.20 L 507.50 367.90 L 509.70 371.10 L 523.70 385.00 L 509.70 398.90 L 507.50 402.10 L 506.50 405.70 L 506.90 409.40 L 508.40 412.90 L 509.70 414.40 L 511.50 415.80 L 513.40 416.80 L 515.40 417.50 L 519.60 417.40 L 521.60 416.80 L 523.50 415.80 L 525.30 414.40 L 539.20 400.50 L 553.20 414.40 L 554.90 415.80 L 556.80 416.80 L 558.90 417.50 L 561.00 417.70 L 563.10 417.40 L 565.10 416.80 L 567.00 415.80 L 568.80 414.40 L 570.00 412.90 L 571.60 409.40 L 571.90 405.70 L 571.00 402.10 L 568.80 398.90 L 554.90 385.00 Z" fill="url(#SVGID_16_)" fill-rule="nonzero" group-id="14,16,18" node-id="331" stroke="none" target-height="65.400024" target-width="65.5" target-x="506.5" target-y="352.3"></path><g node-id="381"><path d="M 515.70 415.40 L 512.10 414.70 L 510.50 413.80 L 509.00 412.60 L 507.10 409.80 L 506.50 408.30 L 506.20 405.90 L 506.50 403.50 L 507.90 400.50 L 551.20 356.90 L 554.00 355.00 L 555.50 354.40 L 557.90 354.10 L 560.40 354.40 L 563.30 355.80 L 564.70 356.90 L 566.60 359.70 L 567.10 361.20 L 567.50 363.70 L 567.20 366.10 L 565.80 369.00 L 522.50 412.60 L 519.30 414.70 L 515.70 415.40 Z" fill="#ffffff" fill-rule="nonzero" group-id="14,16,18,23" node-id="335" stroke="none" target-height="61.299988" target-width="61.299988" target-x="506.2" target-y="354.1"></path></g><path d="M 557.90 415.40 L 554.40 414.70 L 551.20 412.60 L 507.90 369.00 L 506.50 366.10 L 506.20 363.70 L 506.50 361.20 L 507.10 359.70 L 509.00 356.90 L 510.30 355.80 L 513.30 354.40 L 515.70 354.10 L 518.10 354.40 L 519.70 355.00 L 522.50 356.90 L 565.80 400.50 L 567.10 403.50 L 567.50 405.90 L 567.20 408.30 L 566.60 409.80 L 564.70 412.60 L 563.20 413.80 L 561.50 414.70 L 557.90 415.40 Z" fill="#ffffff" fill-rule="nonzero" group-id="14,16,18,24" node-id="340" stroke="none" target-height="61.299988" target-width="61.299988" target-x="506.2" target-y="354.1"></path></g><g node-id="377"><path d="M 292.50 269.30 L 290.40 275.90 L 288.90 282.50 L 288.20 289.80 L 288.30 293.40 L 288.80 296.80 L 289.70 299.60 L 290.90 302.10 L 293.80 305.80 L 296.30 307.70 L 299.00 309.10 L 302.10 310.00 L 305.20 310.50 L 311.90 310.40 L 317.00 309.50 L 321.90 308.00 L 326.10 309.80 L 328.60 310.30 L 332.50 310.70 L 336.70 310.50 L 340.80 309.70 L 344.70 308.30 L 347.10 307.10 L 351.20 304.00 L 352.80 302.00 L 354.00 299.80 L 354.80 297.40 L 355.40 293.90 L 355.40 285.70 L 354.80 281.60 L 353.80 277.70 L 352.50 274.30 L 350.10 270.60 L 348.80 269.30 L 347.10 268.60 L 343.70 268.00 L 334.90 267.50 L 312.70 268.00 L 292.50 269.30 Z" fill="url(#SVGID_17_)" fill-rule="nonzero" group-id="14,16,19" node-id="346" stroke="none" target-height="43.200012" target-width="67.19998" target-x="288.2" target-y="267.5"></path><path d="M 357.90 212.20 L 356.80 208.60 L 354.10 203.60 L 351.30 200.00 L 349.70 198.50 L 348.00 197.50 L 346.20 196.80 L 344.10 196.70 L 341.70 197.10 L 331.80 197.90 L 330.80 199.90 L 328.80 202.30 L 327.20 203.30 L 325.40 203.90 L 322.90 204.00 L 321.30 203.70 L 318.90 202.50 L 317.60 201.00 L 316.80 199.50 L 315.70 195.40 L 313.70 195.20 L 308.60 195.10 L 302.20 195.90 L 299.10 196.90 L 295.40 198.80 L 291.90 201.50 L 288.60 206.20 L 286.40 212.20 L 283.60 224.80 L 282.50 231.50 L 281.90 238.00 L 282.00 246.40 L 282.50 250.20 L 283.50 253.70 L 284.90 256.80 L 286.70 259.40 L 290.90 263.50 L 288.80 276.60 L 289.10 278.10 L 289.90 279.30 L 291.00 280.10 L 292.40 280.40 L 351.00 280.40 L 352.40 280.10 L 353.60 279.30 L 354.30 278.10 L 354.60 276.60 L 352.50 264.20 L 357.60 259.40 L 359.40 256.80 L 360.80 253.70 L 361.80 250.20 L 362.30 246.40 L 362.40 238.00 L 361.80 231.50 L 360.70 224.80 L 357.90 212.20 Z" fill="url(#SVGID_18_)" fill-rule="nonzero" group-id="14,16,19" node-id="348" stroke="none" target-height="85.29999" target-width="80.5" target-x="281.9" target-y="195.1"></path><path d="M 350.30 189.80 L 350.20 186.70 L 349.70 184.80 L 348.30 182.20 L 346.10 179.30 L 344.30 177.60 L 339.80 174.60 L 339.60 171.50 L 339.00 168.60 L 338.00 165.90 L 335.20 161.10 L 331.50 157.40 L 327.50 155.10 L 325.30 154.50 L 323.30 154.40 L 317.90 154.80 L 314.70 155.40 L 312.00 156.40 L 309.50 157.90 L 307.30 159.70 L 305.50 162.00 L 304.00 164.70 L 302.90 168.10 L 302.00 173.90 L 298.50 176.20 L 294.90 180.00 L 292.70 184.50 L 292.20 189.00 L 289.10 191.30 L 287.40 193.20 L 284.90 197.40 L 283.90 201.40 L 283.90 203.60 L 284.30 205.90 L 285.20 208.40 L 286.60 210.80 L 288.60 213.50 L 291.60 216.40 L 300.10 222.30 L 301.50 223.00 L 305.50 224.20 L 312.10 225.00 L 316.10 224.90 L 322.90 223.90 L 325.00 223.00 L 328.30 220.80 L 329.70 220.20 L 331.20 220.10 L 337.70 221.00 L 339.80 221.00 L 345.50 219.80 L 348.20 218.70 L 350.70 217.20 L 352.90 215.30 L 355.10 212.50 L 357.00 208.60 L 357.80 205.60 L 358.10 202.90 L 357.90 200.40 L 357.30 198.20 L 356.20 196.00 L 352.80 191.80 L 350.30 189.80 Z" fill="url(#SVGID_19_)" fill-rule="nonzero" group-id="14,16,19" node-id="350" stroke="none" target-height="70.600006" target-width="74.20001" target-x="283.9" target-y="154.4"></path></g><path d="M 553.00 233.50 L 552.80 237.70 L 552.20 241.70 L 551.20 245.60 L 549.80 249.30 L 546.10 256.20 L 541.10 262.20 L 535.10 267.20 L 528.20 270.90 L 524.50 272.30 L 520.60 273.30 L 516.60 273.90 L 512.40 274.10 L 508.20 273.90 L 504.10 273.30 L 500.30 272.30 L 496.60 270.90 L 489.70 267.20 L 483.70 262.20 L 478.70 256.20 L 474.90 249.30 L 473.60 245.60 L 472.60 241.70 L 472.00 237.70 L 471.80 233.50 L 472.00 229.20 L 472.60 225.20 L 473.60 221.40 L 474.90 217.60 L 478.70 210.70 L 483.70 204.70 L 489.70 199.80 L 496.60 196.00 L 500.30 194.60 L 504.10 193.70 L 508.20 193.00 L 512.40 192.80 L 516.60 193.00 L 520.60 193.70 L 524.50 194.60 L 528.20 196.00 L 535.10 199.80 L 541.10 204.70 L 546.10 210.70 L 549.80 217.60 L 551.20 221.40 L 552.20 225.20 L 552.80 229.20 L 553.00 233.50 Z" fill="url(#SVGID_20_)" fill-rule="nonzero" group-id="14,16" node-id="353" stroke="none" target-height="81.3" target-width="81.20001" target-x="471.8" target-y="192.8"></path><path d="M 184.60 554.20 L 184.30 557.10 L 183.50 559.90 L 182.10 562.50 L 180.20 564.80 L 177.90 566.70 L 175.40 568.00 L 172.60 568.90 L 169.60 569.20 L 166.70 568.90 L 163.90 568.00 L 161.30 566.70 L 159.00 564.80 L 157.10 562.50 L 155.70 559.90 L 154.90 557.10 L 154.60 554.20 L 154.90 551.20 L 155.70 548.40 L 157.10 545.80 L 159.00 543.50 L 161.30 541.60 L 163.90 540.30 L 166.70 539.40 L 169.60 539.10 L 172.60 539.40 L 175.40 540.30 L 177.90 541.60 L 180.20 543.50 L 182.10 545.80 L 183.50 548.40 L 184.30 551.20 L 184.60 554.20 Z" fill="url(#SVGID_21_)" fill-rule="nonzero" group-id="14,16" node-id="355" stroke="none" target-height="30.100037" target-width="30" target-x="154.6" target-y="539.1"></path><path d="M 659.90 592.10 L 659.60 595.10 L 658.80 597.90 L 657.40 600.50 L 655.50 602.80 L 653.20 604.60 L 650.70 606.00 L 647.90 606.90 L 644.90 607.20 L 642.00 606.90 L 639.20 606.00 L 636.60 604.60 L 634.30 602.80 L 632.40 600.50 L 631.00 597.90 L 630.20 595.10 L 629.90 592.10 L 630.20 589.20 L 631.00 586.40 L 632.40 583.80 L 634.30 581.50 L 636.60 579.60 L 639.20 578.30 L 642.00 577.40 L 644.90 577.10 L 647.90 577.40 L 650.70 578.30 L 653.20 579.60 L 655.50 581.50 L 657.40 583.80 L 658.80 586.40 L 659.60 589.20 L 659.90 592.10 Z" fill="url(#SVGID_22_)" fill-rule="nonzero" group-id="14,16" node-id="357" stroke="none" target-height="30.100037" target-width="30" target-x="629.9" target-y="577.1"></path></g></g></svg>